<svg width="111" height="74" viewBox="0 0 111 74" fill="none" xmlns="http://www.w3.org/2000/svg">
<g clip-path="url(#clip0_25_331)">
<path d="M101.75 73.7729C96.6605 73.7729 93.6421 71.1721 93.4111 67.426H98.2772C98.2772 68.6747 98.9701 70.337 101.98 70.4404C104.067 70.4404 105.222 69.1917 105.222 68.2532C104.991 66.7977 103.135 66.6943 101.288 66.3762C99.201 66.0739 97.5843 65.6524 96.4216 65.1354C94.8048 64.3003 93.873 62.5266 93.873 60.6576C93.873 57.325 96.6605 54.7242 101.519 54.7242C106.154 54.7242 109.164 57.1182 109.387 60.761H104.76C104.76 59.8304 104.529 58.2635 101.75 58.2635C99.8939 58.2635 98.7391 58.5737 98.5081 59.9258C98.5081 61.8029 102.442 61.6995 105.453 62.4232C108.232 63.155 110.088 64.9207 110.088 67.426C110.088 72.0073 106.385 73.7729 101.75 73.7729Z" fill="#A3A3A3"/>
<path d="M13.0786 43.0368L29.0545 33.7709L37.6239 48.4531H16.089" fill="#A3A3A3"/>
<path d="M46.6733 73.2207V54.689V73.2207Z" fill="#A3A3A3"/>
<path d="M46.6733 73.2207V54.689" stroke="#A3A3A3" stroke-width="5"/>
<path d="M5.66374 64.2291C5.66374 67.1401 8.21225 69.5341 10.9837 69.5341C14.0021 69.5341 16.3117 67.1401 16.3117 64.2291C16.3117 61.4215 14.0021 58.9241 10.9837 58.9241C8.21225 58.9241 5.66374 61.4215 5.66374 64.2291ZM10.7528 73.8052C5.66374 73.8052 1.26758 69.5341 1.26758 64.2291C1.26758 58.9241 5.66374 54.7565 10.7528 54.7565C12.8394 54.7565 14.695 55.2814 16.3117 56.4187V54.9633H20.9468V73.3836H16.3117V72.2383C14.926 73.2802 12.8394 73.8052 10.7528 73.8052Z" fill="#A3A3A3"/>
<path d="M72.5874 48.4492L50.3599 9.73167L66.3357 0.362465L94.1221 48.4492" fill="#A3A3A3"/>
<path d="M26.9675 64.2291C26.9675 67.1401 29.285 69.5341 32.2954 69.5341C35.0669 69.5341 37.6234 67.1401 37.6234 64.2291C37.6234 61.4215 35.0669 58.9241 32.2954 58.9241C29.285 58.9241 26.9675 61.4215 26.9675 64.2291ZM32.0645 73.8052C26.7365 73.8052 22.5713 69.5341 22.5713 64.2291C22.5713 58.9241 26.7365 54.7564 32.0645 54.7564C34.1431 54.7564 35.9987 55.2814 37.6234 56.4187V48.6163H42.2505V73.3836H37.6234V72.2383C35.9987 73.2802 34.1431 73.8052 32.0645 73.8052Z" fill="#A3A3A3"/>
<path d="M31.8359 26.4883L48.0428 17.3338L65.8744 48.4481H48.9666V53.0293H44.3395V48.4481" fill="#A3A3A3"/>
<path d="M107.086 53.1733C105.923 53.1733 104.768 52.1314 104.768 50.8827C104.768 49.634 105.923 48.5921 107.086 48.5921C108.471 48.5921 109.403 49.634 109.403 50.8827C109.403 52.1314 108.471 53.1733 107.086 53.1733ZM107.086 48.9103C105.923 48.9103 105.23 49.8408 105.23 50.8827C105.23 51.9246 105.923 52.8632 107.086 52.8632C108.24 52.8632 108.933 51.9246 108.933 50.8827C108.933 49.8408 108.24 48.9103 107.086 48.9103Z" fill="#A3A3A3"/>
<path d="M107.563 52.1396L107.101 51.0977H106.639V52.1396H106.289V49.6422H107.332C107.563 49.6422 108.025 49.9604 108.025 50.374C108.025 50.7875 107.794 50.9943 107.563 51.0977L108.025 52.1396H107.563ZM107.101 49.9604H106.639V50.7875H107.101C107.563 50.7875 107.563 50.6842 107.563 50.374C107.563 50.1592 107.563 49.9604 107.101 49.9604Z" fill="#A3A3A3"/>
<path d="M76.5041 64.2291C76.5041 67.1401 78.8216 69.5341 81.832 69.5341C84.6115 69.5341 87.152 67.1401 87.152 64.2291C87.152 61.4215 84.6115 58.9241 81.832 58.9241C78.8216 58.9241 76.5041 61.4215 76.5041 64.2291ZM81.5931 73.8052C76.2731 73.8052 72.1079 69.5341 72.1079 64.2291C72.1079 58.9241 76.2731 54.7565 81.5931 54.7565C83.6797 54.7565 85.5353 55.2814 87.152 56.4187V54.9632H91.5562V73.3836H87.152V72.2383C85.5353 73.2802 83.6797 73.8052 81.5931 73.8052Z" fill="#A3A3A3"/>
<path d="M55.216 64.2291C55.216 67.1401 57.7645 69.5341 60.544 69.5341C63.5544 69.5341 65.8719 67.1401 65.8719 64.2291C65.8719 61.4215 63.5544 58.9241 60.544 58.9241C57.7645 58.9241 55.216 61.4215 55.216 64.2291ZM65.8719 48.6163H70.499V73.3836H65.8719V72.2383C64.4782 73.2802 62.6226 73.8052 60.544 73.8052C55.216 73.8052 50.8198 69.5341 50.8198 64.2291C50.8198 58.9241 55.216 54.7564 60.544 54.7564C62.6226 54.7564 64.4782 55.2814 65.8719 56.4187V48.6163Z" fill="#A3A3A3"/>
</g>
<defs>
<clipPath id="clip0_25_331">
<rect width="109.549" height="74" fill="white" transform="translate(0.913086)"/>
</clipPath>
</defs>
</svg>
