<svg width="171" height="60" viewBox="0 0 171 60" fill="none" xmlns="http://www.w3.org/2000/svg">
<path d="M19.95 41.1157C16.9186 41.1157 15.4616 38.7852 16.2225 36.0893C17.7934 30.5018 27.8877 22.2218 34.7666 22.2218C39.7827 22.2218 39.4009 26.7102 36.4602 30.5386L34.8347 32.3379C29.0045 38.0591 23.5997 41.1157 19.95 41.1157ZM44.5363 3.43701C35.7572 3.44042 26.0897 8.8111 20.0182 13.8975L20.4975 14.5922C29.9216 7.9861 42.9982 3.69065 46.6029 10.1338C48.5066 13.5327 45.2754 20.3972 40.725 25.8225C41.8132 23.4266 41.0945 18.8263 34.7495 18.8263C24.2018 18.8263 3.43701 32.7988 3.43701 47.0986C3.43701 52.8266 7.41065 56.5636 13.9561 56.5636C31.4761 56.5636 55.2361 27.8454 55.2361 13.4216C55.2361 8.32633 52.305 3.43701 44.5363 3.43701Z" fill="#A3A3A3"/>
<path d="M67.0923 41.1156C66.0723 41.1156 65.2234 40.7597 64.6923 40.1099C64.1387 39.4288 63.9737 38.4634 64.2362 37.4665C64.8191 35.3038 67.1503 33.6047 69.5475 33.6047H75.1862L73.1714 41.1156H67.0923ZM83.2978 18.5993C81.6853 16.6165 79.0746 15.7295 77.2064 15.7295H66.96L65.2207 22.2163H74.8841L75.81 22.3138C75.8196 22.3138 76.6971 22.4161 77.1866 23.0747C77.5821 23.6256 77.64 24.4438 77.3557 25.517L76.8989 27.2243H70.8103C65.5698 27.2243 58.2641 30.9838 56.6353 37.0561C55.8253 40.084 56.535 42.707 58.1087 44.6345C59.67 46.5477 62.6169 47.6038 65.8003 47.6038H71.4389H71.4355H78.6021L81.9634 35.0509L84.4378 25.8238C85.4094 22.1959 84.3566 19.8913 83.2978 18.5993Z" fill="#A3A3A3"/>
<path d="M153.683 15.7295C150.911 15.7295 148.335 16.5497 146.24 18.1022C144.125 19.6684 142.959 21.5502 142.263 24.1459C140.754 29.7715 145.175 32.4865 148.727 34.4113C151.275 35.7913 153.479 36.9818 153.002 38.7449C152.665 40.0104 152.112 41.1177 148.978 41.1177H139.41L137.674 47.6038H148.265C151.104 47.6038 153.725 47.0127 155.837 45.3913C157.95 43.7645 159.145 41.4981 159.883 38.732C160.592 36.0995 160.115 33.5849 158.42 31.7086C157.008 30.1329 154.977 29.0386 153.187 28.0718C150.894 26.8377 148.731 25.6731 149.109 24.2618C149.34 23.4074 150.187 22.2163 152.04 22.2163H161.347L163.087 15.7295H153.683Z" fill="#A3A3A3"/>
<path d="M98.1557 15.7295C95.3841 15.7295 92.8088 16.5497 90.7136 18.1022C88.5986 19.6684 87.432 21.5502 86.7298 24.1459C85.2243 29.7715 89.6486 32.4865 93.2002 34.4113C95.7495 35.7913 97.9477 36.9818 97.4752 38.7449C97.135 40.0104 96.5848 41.1177 93.4504 41.1177H83.8838L82.1445 47.6038H92.7345C95.5777 47.6038 98.1979 47.0127 100.31 45.3913C102.427 43.7645 103.618 41.4981 104.357 38.732C105.063 36.0995 104.585 33.5849 102.897 31.7086C101.485 30.1329 99.4504 29.0386 97.6573 28.0718C95.367 26.8377 93.207 25.6731 93.5854 24.2618C93.8125 23.4074 94.6634 22.2163 96.5125 22.2163H105.815L107.557 15.7295H98.1557Z" fill="#A3A3A3"/>
<path d="M112.606 15.7295L104.3 47.6038H111.318L119.618 15.7295H112.606Z" fill="#A3A3A3"/>
<path d="M138.288 15.7295C125.933 15.7738 119.467 24.002 117.415 31.667C114.983 40.7556 119.821 47.6045 128.669 47.6045H134.598L136.334 41.1184H130.407C127.096 41.1184 122.542 38.5125 124.377 31.667C125.835 26.2261 131.14 22.217 136.96 22.217H140.725L142.464 15.7302H138.288V15.7295Z" fill="#A3A3A3"/>
</svg>
