<svg width="136" height="74" viewBox="0 0 136 74" fill="none" xmlns="http://www.w3.org/2000/svg">
<g clip-path="url(#clip0_25_363)">
<path d="M0.92041 73.146H3.91557V67.2101C3.91557 66.153 3.91557 64.8488 4.45804 64.0848C4.99779 63.2542 5.96718 62.9842 6.50829 62.9842C9.03167 62.9842 9.03167 65.9535 9.03167 66.9848V73.146H12.0255V66.4013C12.0255 65.4323 12.0255 63.3438 10.878 61.9731C9.84334 60.7124 8.19689 60.2374 7.11738 60.2374C5.22349 60.2374 4.18748 61.2756 3.6926 61.7479V60.6649H0.92041V73.146Z" fill="#A3A3A3"/>
<path fill-rule="evenodd" clip-rule="evenodd" d="M25.6476 68.2447C25.7332 67.8416 25.827 67.3232 25.827 66.7397C25.827 63.594 23.3254 60.1701 19.3609 60.1701C15.5078 60.1701 12.7832 63.4121 12.7832 66.9405C12.7832 70.5816 15.6669 73.5522 19.384 73.5522C22.3125 73.5522 24.6986 71.4637 25.4205 69.2137H22.2649C21.7034 70.2477 20.7136 70.8082 19.384 70.8082C17.244 70.8082 16.072 69.0549 15.9361 68.2447H25.6476ZM15.8463 65.8386C16.4092 63.522 18.28 62.9154 19.384 62.9154C20.8714 62.9154 22.424 63.8369 22.7625 65.8386H15.8463Z" fill="#A3A3A3"/>
<path d="M29.6711 73.146H31.5147L33.8817 65.0524H33.9252L36.2705 73.146H38.1168L42.6891 60.6649H39.4913L37.1909 68.289H37.1474L35.1176 60.6649H32.7329L30.6826 68.289H30.6377L28.3632 60.6649H25.1641L29.6711 73.146Z" fill="#A3A3A3"/>
<path fill-rule="evenodd" clip-rule="evenodd" d="M48.4878 73.146H51.2341V71.6396C51.9751 72.4729 53.0383 73.5518 55.4489 73.5518C60.0198 73.5518 61.6649 69.3475 61.6649 66.8491C61.6649 63.5473 59.1877 60.2374 55.3809 60.2374C53.9832 60.2374 52.5176 60.7572 51.4816 61.7926V56.5068H48.4878V73.146ZM51.3008 66.7392C51.3008 64.918 52.7202 62.9842 55.0179 62.9842C56.9118 62.9842 58.6697 64.443 58.6697 66.8749C58.6697 69.3 57.0246 70.8091 55.0641 70.8091C53.3075 70.8091 51.3008 69.5049 51.3008 66.7392Z" fill="#A3A3A3"/>
<path fill-rule="evenodd" clip-rule="evenodd" d="M75.6506 60.6654H72.9002V62.2437H72.8553C72.7643 62.0618 71.2538 60.2365 68.7113 60.2365C65.2431 60.2365 62.4478 63.0036 62.4478 66.8293C62.4478 70.9874 65.3097 73.5522 68.5319 73.5522C70.1063 73.5522 71.9553 72.7176 72.9002 71.5994V73.1465H75.6506V60.6654ZM72.8132 66.8754C72.8132 69.1906 71.2334 70.8082 69.16 70.8082C67.0214 70.8082 65.4429 69.0766 65.4429 66.9636C65.4429 65.0976 66.7046 62.9846 69.16 62.9846C70.9411 62.9846 72.8132 64.2874 72.8132 66.8754Z" fill="#A3A3A3"/>
<path d="M80.2383 56.5073H77.2432V73.1465H80.2383V56.5073Z" fill="#A3A3A3"/>
<path fill-rule="evenodd" clip-rule="evenodd" d="M94.3387 60.6654H91.591V62.2437H91.5448C91.4537 62.0618 89.9432 60.2365 87.4008 60.2365C83.9284 60.2365 81.1372 63.0036 81.1372 66.8293C81.1372 70.9874 83.9991 73.5522 87.22 73.5522C88.7957 73.5522 90.642 72.7176 91.591 71.5994V73.1465H94.3387V60.6654ZM91.4999 66.8754C91.4999 69.1906 89.9242 70.8082 87.8508 70.8082C85.7095 70.8082 84.1337 69.0766 84.1337 66.9636C84.1337 65.0976 85.3954 62.9846 87.8508 62.9846C89.6305 62.9846 91.4999 64.2874 91.4999 66.8754Z" fill="#A3A3A3"/>
<path d="M95.9336 73.146H98.9274V67.2101C98.9274 66.153 98.9274 64.8488 99.4699 64.0848C100.01 63.2542 100.982 62.9842 101.52 62.9842C104.042 62.9842 104.042 65.9535 104.042 66.9848V73.146H107.04V66.4013C107.04 65.4323 107.04 63.3438 105.888 61.9731C104.852 60.7124 103.21 60.2374 102.128 60.2374C100.234 60.2374 99.2007 61.2756 98.7031 61.7479V60.6649H95.9336V73.146Z" fill="#A3A3A3"/>
<path d="M117.684 69.077C116.894 70.3363 115.906 70.8086 114.915 70.8086C112.659 70.8086 111.151 69.0322 111.151 66.8961C111.151 64.3326 112.954 62.9837 114.777 62.9837C116.625 62.9837 117.325 64.1752 117.684 64.8035H121.065C119.781 60.9575 116.353 60.2369 114.777 60.2369C111.331 60.2369 108.156 63.0298 108.156 66.8486C108.156 70.9877 111.599 73.5513 114.802 73.5513C117.73 73.5513 120.048 71.8644 121.065 69.077H117.684Z" fill="#A3A3A3"/>
<path fill-rule="evenodd" clip-rule="evenodd" d="M134.391 68.2447C134.479 67.8416 134.569 67.3232 134.569 66.7397C134.569 63.594 132.07 60.1701 128.105 60.1701C124.252 60.1701 121.526 63.4121 121.526 66.9405C121.526 70.5816 124.41 73.5522 128.127 73.5522C131.054 73.5522 133.444 71.4637 134.164 69.2137H131.011C130.447 70.2477 129.458 70.8082 128.127 70.8082C125.986 70.8082 124.815 69.0549 124.683 68.2447H134.391ZM124.591 65.8386C125.155 63.522 127.023 62.9154 128.127 62.9154C129.616 62.9154 131.169 63.8369 131.506 65.8386H124.591Z" fill="#A3A3A3"/>
<path fill-rule="evenodd" clip-rule="evenodd" d="M51.9089 31.7776L47.9049 38.6797L25.7424 37.4353L27.9612 33.5907L51.9089 31.7776ZM67.9302 9.78473L69.9383 17.402L38.4912 15.3393L40.7086 11.496L67.9302 9.78473ZM47.0824 0.447998L65.4897 0.461567L66.8792 5.67005L44.8676 4.29126L47.0824 0.447998ZM45.4645 42.9722L42.2681 48.4575L19.3687 48.4819L21.5861 44.64L45.4645 42.9722ZM85.6686 28.1732L80.1256 37.7637H85.4049C87.8508 37.7637 92.2341 36.545 93.5828 33.0682C94.8322 29.837 92.5359 28.1691 90.933 28.1691L85.6686 28.1732ZM90.9547 18.9993L95.5596 18.9708C98.6241 18.9545 101.82 17.5554 102.99 14.7164C104.068 12.0823 102.619 9.83901 100.697 9.84715L96.2435 9.84172L90.9547 18.9993ZM70.111 17.402L74.7607 9.35046L90.4979 8.34215L91.0472 7.36505L76.4901 6.34859L79.8945 0.447998L106.89 0.446644C115.192 0.446644 121.333 3.40915 118.946 12.1216C118.228 14.7612 114.853 21.4054 104.957 24.1888C107.058 24.4385 112.289 26.7523 111.388 32.7506C109.786 43.3874 95.9892 48.4507 88.3144 48.4534L56.4431 48.4684L54.8728 42.314L71.5657 41.1388L72.1327 40.1644L54.0271 39.0638L52.0761 31.7681L77.8388 30.2672L78.399 29.3009L32.1147 26.3859L34.3322 22.544L84.1527 19.3155L84.7169 18.3479L70.111 17.402Z" fill="#A3A3A3"/>
</g>
<defs>
<clipPath id="clip0_25_363">
<rect width="134.545" height="74" fill="white" transform="translate(0.472168)"/>
</clipPath>
</defs>
</svg>
