<svg width="139" height="50" viewBox="0 0 139 50" fill="none" xmlns="http://www.w3.org/2000/svg">
<path d="M16.4926 49.0213C12.4371 48.8602 9.119 47.7505 6.52456 45.6894C6.02942 45.2956 4.84955 44.1151 4.45372 43.6172C3.40164 42.2942 2.68636 41.0068 2.20928 39.5783C0.741224 35.1811 1.49678 29.4109 4.37039 23.0783C6.83081 17.6567 10.6273 12.2797 17.2509 4.83245C18.2266 3.73662 21.1322 0.531738 21.1509 0.531738C21.1579 0.531738 20.9996 0.806049 20.8002 1.14008C19.078 4.0248 17.6044 7.42271 16.8016 10.3644C15.5121 15.0845 15.6676 19.1352 17.2572 22.2762C18.3537 24.4401 20.2336 26.3144 22.3475 27.3505C26.0482 29.1637 31.4662 29.3137 38.0829 27.7894C38.5384 27.6838 61.1121 21.6915 88.2468 14.4727C115.381 7.25327 137.586 1.35119 137.59 1.35605C137.597 1.3623 74.5482 28.3415 41.8183 42.338C36.635 44.554 35.2489 45.1137 32.8121 45.9693C26.5829 48.1568 21.003 49.2005 16.4926 49.0213Z" fill="#A3A3A3"/>
</svg>
