<svg width="150" height="74" viewBox="0 0 150 74" fill="none" xmlns="http://www.w3.org/2000/svg">
<g clip-path="url(#clip0_25_321)">
<path d="M80.3124 0.252808C79.8248 0.32486 79.356 2.11834 78.4137 3.05346C77.7254 3.72699 76.8646 3.68626 76.4084 4.51957C76.2343 4.8297 76.2908 5.36226 76.0948 5.87133C75.7091 6.89259 74.356 6.98345 74.356 8.09557C74.3513 9.29696 75.4833 9.52565 76.4664 10.3793C77.2331 11.0638 77.3067 11.5368 78.2349 11.8705C79.0283 12.1383 80.2073 11.2596 81.2687 11.576C82.1389 11.8345 82.973 12.0209 83.1706 12.9152C83.3446 13.7407 83.158 15.0173 82.1013 14.8701C81.7454 14.8293 80.1995 14.3109 78.3039 14.5129C76.0132 14.773 73.4012 15.5185 73.1456 18.0701C73.0045 19.4939 74.7699 21.1747 76.4742 20.8332C77.6517 20.6029 77.0951 19.2136 77.7348 18.54C78.5768 17.6754 83.3447 21.5553 87.7739 21.5553C89.6397 21.5553 91.0272 21.0838 92.4054 19.6427C92.534 19.5315 92.6908 19.2966 92.8899 19.2809C93.0781 19.2966 93.4057 19.4814 93.5138 19.5597C97.0808 22.4246 99.7791 28.1731 112.894 28.2389C114.74 28.2499 116.839 29.1302 118.556 30.6934C120.086 32.1063 120.98 34.307 121.85 36.5375C123.164 39.8848 125.514 43.1413 129.081 46.7642C129.276 46.9585 132.212 49.2391 132.447 49.4083C132.483 49.4349 132.7 49.9487 132.624 50.2353C132.538 52.4094 132.222 58.7265 136.936 59.0132C138.089 59.0711 137.788 58.2613 137.788 57.7053C137.784 56.6041 137.584 55.5108 138.164 54.383C138.957 52.8339 136.48 52.1212 136.552 48.7708C136.604 46.2724 134.503 46.6985 133.438 44.7953C132.824 43.6926 132.278 43.1084 132.317 41.7597C132.557 34.1707 130.701 29.1834 129.776 27.9586C129.053 27.0344 128.456 26.6679 129.116 26.2403C133.051 23.6417 133.943 21.2279 133.943 21.2279C136.036 16.3142 137.918 11.8266 140.512 9.84988C141.035 9.44106 142.375 8.44173 143.197 8.05014C145.619 6.90984 146.892 6.2175 147.596 5.53457C148.708 4.45221 149.589 2.19196 148.521 0.822956C147.195 -0.867142 144.901 0.473667 143.89 1.07358C136.655 5.36227 135.589 12.9278 133.084 17.2729C131.085 20.7439 127.835 23.2939 124.928 23.5023C122.752 23.6636 120.401 23.2235 118.064 22.1975C112.377 19.707 109.266 16.4912 108.529 15.9226C107.002 14.7447 95.143 3.11142 85.5319 2.63681C85.5319 2.63681 84.3387 0.249672 84.0392 0.212078C83.3368 0.121231 82.6171 1.6359 82.1013 1.8129C81.6168 1.97267 80.8015 0.17292 80.3124 0.252808Z" fill="#A3A3A3"/>
<path d="M38.0061 69.6784C37.1014 69.6565 36.3332 68.9156 36.3332 67.9993L36.3363 38.0505H26.4556V71.0615C26.4556 72.6811 27.7679 74 29.3781 74H46.6451C48.2663 74 49.5629 72.6811 49.5629 71.0615V38.0505H39.6916L39.6837 67.9993C39.6837 68.9156 38.9155 69.6565 38.0061 69.6784Z" fill="#A3A3A3"/>
<path d="M71.0838 38.0505H56.1325C54.3608 38.0505 52.9199 39.4884 52.9199 41.2741V74H62.8101V43.9808C62.8164 43.0613 63.5611 42.3329 64.4815 42.3329C65.4034 42.3329 66.1449 43.0441 66.1653 43.9557V74H76.0132V43.9557C76.0257 43.0441 76.7657 42.3329 77.6876 42.3329C78.6001 42.3329 79.3558 43.0613 79.3621 43.9808V74H89.2523V41.2741C89.2523 39.4884 87.8068 38.0505 86.0382 38.0505H71.0838Z" fill="#A3A3A3"/>
<path d="M19.8658 64.9668H9.88469V74H0.0102539V38.0505H19.9285C21.7112 38.0505 23.1035 39.4978 23.1035 41.2882V61.726C23.1035 63.5226 21.6563 64.9668 19.8658 64.9668ZM13.2353 44.0434C13.2431 43.0441 12.4278 42.3329 11.5623 42.3329H9.88469V60.5152H11.5623C12.4341 60.5152 13.2431 59.8229 13.2353 58.8267V44.0434Z" fill="#A3A3A3"/>
<path d="M105.829 74V64.9746H102.472V74H92.6025V41.2741C92.6025 39.4884 94.0434 38.0505 95.8151 38.0505H112.488C114.263 38.0505 115.702 39.4884 115.702 41.2741V74H105.829ZM105.829 60.5215V43.9682C105.806 43.0535 105.069 42.3502 104.147 42.3502C103.234 42.3502 102.482 43.0817 102.472 43.9949V60.5215H105.829Z" fill="#A3A3A3"/>
</g>
<defs>
<clipPath id="clip0_25_321">
<rect width="148.993" height="74" fill="white" transform="translate(0.0102539)"/>
</clipPath>
</defs>
</svg>
