<svg width="137" height="80" viewBox="0 0 137 80" fill="none" xmlns="http://www.w3.org/2000/svg">
<g clip-path="url(#clip0_25_396)">
<path d="M100.447 30.027C111.453 25.1884 118.64 17.9221 119.032 9.86095C119.032 9.86095 116.126 7.62404 106.745 4.17446C98.5064 1.14521 92.2214 0.451908 92.2214 0.451908L92.2504 18.4124C92.2504 21.0962 91.1722 23.8356 89.1369 26.261C82.9099 24.7584 76.0278 23.9153 68.8097 23.9129H68.8049C61.5819 23.9153 54.6926 24.7608 48.4584 26.2658C46.423 23.8405 45.3424 21.0987 45.3424 18.4124L45.369 0.451908C45.369 0.451908 39.0889 1.14521 30.8458 4.17446C21.4643 7.62404 18.5635 9.86095 18.5635 9.86095C18.9527 17.9245 26.1417 25.1932 37.1598 30.0318C26.1514 34.8704 18.9648 42.1368 18.5756 50.1954C18.5756 50.1954 21.4788 52.4348 30.8603 55.8819C39.1009 58.9112 45.3835 59.6045 45.3835 59.6045L45.3545 41.644C45.3545 38.9601 46.4327 36.2184 48.4704 33.7954C54.6974 35.3004 61.5771 36.1411 68.7952 36.1411H68.7976C76.023 36.1411 82.9147 35.298 89.1465 33.7882C91.1819 36.2135 92.26 38.9601 92.26 41.644L92.2359 59.6045C92.2359 59.6045 98.5184 58.9112 106.759 55.8819C116.141 52.4348 119.044 50.1954 119.044 50.1954C118.652 42.1319 111.463 34.8632 100.447 30.027ZM68.8 34.0684H68.7928L68.5873 34.0636C62.0702 34.0636 56.757 32.4692 52.8603 30.0318C56.757 27.5896 62.0727 25.9928 68.6018 25.9928L68.8024 25.9904H68.8121L69.0176 25.9928C75.5371 25.9928 80.8479 27.5872 84.7446 30.0246C80.8479 32.4644 75.5322 34.0636 69.0055 34.0636" fill="#A3A3A3"/>
<path d="M4.15754 79.5039C1.00053 79.5039 0.944936 77.0979 0.944936 76.1703V71.7931C0.944936 71.5273 0.92318 71.1747 1.48641 71.1747H3.1181C3.64749 71.1747 3.61365 71.5515 3.61365 71.7931V76.1703C3.61365 76.4819 3.67166 77.3177 4.81989 77.3177H7.55628C8.68275 77.3177 8.74802 76.4819 8.74802 76.1703V71.7931C8.74802 71.5515 8.71659 71.1747 9.24356 71.1747H10.8873C11.4844 71.1747 11.4312 71.5515 11.4312 71.7931V76.1703C11.4312 77.0979 11.3756 79.5039 8.20654 79.5039" fill="#A3A3A3"/>
<path d="M19.2776 78.9751C18.1632 77.475 16.5726 75.5859 14.9506 73.5906V78.9195C14.9506 79.1514 15.0086 79.5041 14.455 79.5041H12.9321C12.381 79.5041 12.4462 79.1514 12.4462 78.9195V71.7933C12.4462 71.5517 12.4221 71.1749 12.9321 71.1749H15.9006C16.7394 71.1749 17.9335 72.8634 18.7167 73.9771C19.3211 74.8274 20.4379 76.1053 21.1872 77.0643V71.7933C21.1872 71.5517 21.1534 71.1749 21.707 71.1749H23.3604C23.8922 71.1749 23.8584 71.5517 23.8584 71.7933V79.5041H20.8126C20.1599 79.5041 19.8722 79.5476 19.2776 78.9751Z" fill="#A3A3A3"/>
<path d="M31.8256 77.3129C33.1599 77.3129 33.0632 76.0326 33.0632 75.448C33.0632 73.4841 32.5097 73.4068 31.6274 73.4068H27.4333V77.3129H31.8256ZM24.8589 79.5063V71.1892H32.2148C32.6644 71.1892 35.6764 71.136 35.6764 74.2982C35.6764 77.5327 36.0293 79.5063 32.28 79.5063H28.3156L27.4551 77.7646V79.5063" fill="#A3A3A3"/>
<path d="M38.558 71.2427H45.3337C45.909 71.2427 45.8316 71.6172 45.8316 72.3129C45.8316 72.9603 45.9187 73.325 45.3337 73.325H39.9793C39.8367 73.325 39.3533 73.2477 39.3533 73.755C39.3533 74.2623 39.2541 74.4628 39.7932 74.4628H44.5287C44.5287 74.4628 45.2128 75.7649 45.2902 75.9847C45.4014 76.1828 45.3893 76.3712 44.9711 76.3712H40.0688L39.3073 74.8928V77.0766C39.3073 77.5839 39.7618 77.4848 39.8923 77.4848H45.4545C46.0081 77.4848 45.9622 77.8689 45.9622 78.497C45.9622 79.1734 46.0081 79.5454 45.4545 79.5454H38.4129C37.8279 79.5454 36.6821 79.3691 36.6821 77.5404V72.9506C36.6821 72.4771 36.9359 71.2427 38.558 71.2427Z" fill="#A3A3A3"/>
<path d="M53.5642 73.3837H50.2646C49.7158 73.3837 49.7352 73.5721 49.7352 73.7388V75.2269H53.1339C54.7801 75.2269 54.7801 74.8162 54.7801 74.3862C54.7801 73.5262 54.7148 73.3837 53.5642 73.3837ZM47.6611 71.1879H55.0774C56.0709 71.1879 57.5141 71.1782 57.5141 73.8572C57.5141 75.611 57.1418 75.6979 56.3465 76.239C57.6833 76.4709 57.5068 78.1788 57.5068 79.063C57.5068 79.5147 57.3425 79.505 57.2071 79.505H55.0339C54.5795 79.505 54.6907 78.7876 54.6907 78.4131C54.6907 77.3865 54.1178 77.4324 53.8954 77.4324H50.6948C50.3879 76.9009 49.7908 75.71 49.7908 75.71V79.162C49.7908 79.4615 49.491 79.505 49.3823 79.505H47.1994C47.3179 79.505 46.9746 79.5268 46.9746 79.2272V71.9053C46.9746 71.3859 47.3396 71.1879 47.6611 71.1879Z" fill="#A3A3A3"/>
<path d="M69.4013 73.5464L68.0331 76.0393L68.154 76.1601H70.7043L70.8372 76.0393C70.7478 75.8509 69.6455 73.7565 69.5343 73.5343L69.4013 73.5464ZM70.2837 71.2442C70.8251 71.2442 71.3521 71.4858 71.9274 72.5994C72.3166 73.3917 75.0095 78.2545 75.5703 79.2715V79.5469H72.7662L71.9589 78.0902H68.5505C68.5505 78.0902 67.9775 76.7785 67.8132 76.4162C67.6029 76.7568 66.4764 78.8971 66.0872 79.5469H63.2759V79.3705C63.8488 78.2907 67.7672 71.2442 67.7672 71.2442" fill="#A3A3A3"/>
<path d="M82.9246 73.3837H79.6249C79.0738 73.3837 79.0955 73.5721 79.0955 73.7388V75.2269H82.4943C84.1405 75.2269 84.1405 74.8162 84.1405 74.3862C84.1405 73.5262 84.0752 73.3837 82.9246 73.3837ZM77.0215 71.1879H84.4378C85.4313 71.1879 86.8769 71.1782 86.8769 73.8572C86.8769 75.611 86.5046 75.6979 85.7069 76.239C87.0412 76.4709 86.8648 78.1788 86.8648 79.063C86.8648 79.5147 86.7004 79.505 86.5674 79.505H84.3943C83.9398 79.505 84.051 78.7876 84.051 78.4131C84.051 77.3865 83.4781 77.4324 83.2557 77.4324H80.0552C79.7458 76.9009 79.1487 75.71 79.1487 75.71V79.162C79.1487 79.4615 78.8538 79.505 78.7426 79.505H76.5574C76.6782 79.505 76.3374 79.5268 76.3374 79.2272V71.9053C76.3374 71.3859 76.7024 71.1879 77.0215 71.1879Z" fill="#A3A3A3"/>
<path d="M93.3562 79.5039C92.8026 78.4676 91.2676 75.6098 90.2306 73.7377V78.9193C90.2306 79.1512 90.262 79.5039 89.7374 79.5039H88.2339C87.6706 79.5039 87.7142 79.1512 87.7142 78.9193V71.7931C87.7142 71.5515 87.6827 71.1868 88.2339 71.1868H90.8277C91.2144 71.1868 91.7632 71.0974 92.3844 72.3342C92.8485 73.3246 93.8324 75.3804 94.5044 76.4698C95.1982 75.3804 96.2038 73.3246 96.6679 72.3342C97.2746 71.0974 97.8137 71.1868 98.244 71.1868H100.826C101.357 71.1868 101.302 71.5515 101.302 71.7931V78.9193C101.302 79.1512 101.377 79.5039 100.826 79.5039H99.3148C98.7637 79.5039 98.8072 79.1512 98.8072 78.9193V73.7377C97.7605 75.6098 96.2352 78.4676 95.6599 79.5039" fill="#A3A3A3"/>
<path d="M109.578 77.3856C110.827 77.3856 110.781 76.098 110.781 75.2356C110.781 74.4626 110.958 73.25 109.336 73.25H106.585C104.975 73.25 105.164 74.4626 105.164 75.2356C105.164 76.098 105.086 77.3856 106.334 77.3856H109.578ZM104.634 79.5259C102.173 79.5259 102.282 76.888 102.282 75.1825C102.282 73.6147 102.106 71.1677 105.185 71.1435H110.651C113.74 71.1435 113.54 73.6244 113.54 75.1825C113.54 76.888 113.663 79.5259 111.166 79.5259" fill="#A3A3A3"/>
<path d="M117.654 79.5039C114.495 79.5039 114.442 77.0979 114.442 76.1703V71.7931C114.442 71.5273 114.42 71.1747 114.983 71.1747H116.617C117.144 71.1747 117.113 71.5515 117.113 71.7931V76.1703C117.113 76.4819 117.168 77.3177 118.317 77.3177H121.053C122.18 77.3177 122.245 76.4819 122.245 76.1703V71.7931C122.245 71.5515 122.211 71.1747 122.74 71.1747H124.384C124.981 71.1747 124.928 71.5515 124.928 71.7931V76.1703C124.928 77.0979 124.872 79.5039 121.703 79.5039" fill="#A3A3A3"/>
<path d="M132.583 73.3837H129.284C128.732 73.3837 128.754 73.5721 128.754 73.7388V75.2269H132.153C133.799 75.2269 133.799 74.8162 133.799 74.3862C133.799 73.5262 133.734 73.3837 132.583 73.3837ZM126.678 71.1879H134.097C135.09 71.1879 136.538 71.1782 136.538 73.8572C136.538 75.611 136.161 75.6979 135.366 76.239C136.702 76.4709 136.526 78.1788 136.526 79.063C136.526 79.5147 136.362 79.505 136.226 79.505H134.053C133.601 79.505 133.71 78.7876 133.71 78.4131C133.71 77.3865 133.137 77.4324 132.917 77.4324H129.714C129.407 76.9009 128.81 75.71 128.81 75.71V79.162C128.81 79.4615 128.51 79.505 128.401 79.505H126.218C126.337 79.505 125.996 79.5268 125.996 79.2272V71.9053C125.996 71.3859 126.361 71.1879 126.678 71.1879Z" fill="#A3A3A3"/>
</g>
<defs>
<clipPath id="clip0_25_396">
<rect width="136.497" height="80" fill="white" transform="translate(0.492676)"/>
</clipPath>
</defs>
</svg>
